HIERARCHY
ROOT hip
{
	OFFSET 0.000000 0.000000 0.000000 
	CHANNELS 6 Xposition Yposition Zposition Xrotation Zrotation Yrotation
	JOINT abdomen
	{
		OFFSET 0.000000 3.402643 0.000000 
		CHANNELS 3 Xrotation Zrotation Yrotation
		JOINT chest
		{
			OFFSET 0.000000 8.438565 -0.680529 
			CHANNELS 3 Xrotation Zrotation Yrotation
			JOINT neck
			{
				OFFSET 0.000000 10.207942 -0.272212 
				CHANNELS 3 Xrotation Zrotation Yrotation
				JOINT head
				{
					OFFSET 0.000000 3.130431 0.000000 
					CHANNELS 3 Xrotation Zrotation Yrotation
					End Site
					{
						OFFSET 0.000000 3.130435 0.000000 
					}
				}
			}
			JOINT lCollar
			{
				OFFSET 3.470700 6.669187 -0.816635 
				CHANNELS 3 Yrotation Zrotation Xrotation
				JOINT lShldr
				{
					OFFSET 3.198488 0.000000 0.000000 
					CHANNELS 3 Zrotation Yrotation Xrotation
					JOINT lForeArm
					{
						OFFSET 10.139888 0.000000 0.000000 
						CHANNELS 3 Yrotation Zrotation Xrotation
						JOINT lHand
						{
							OFFSET 8.370511 0.000000 0.000000 
							CHANNELS 3 Zrotation Yrotation Xrotation
							End Site
							{
								OFFSET 4.083176 0.000000 0.000000 
							}
						}
					}
				}
			}
			JOINT rCollar
			{
				OFFSET -3.470700 6.669187 -0.816635 
				CHANNELS 3 Yrotation Zrotation Xrotation
				JOINT rShldr
				{
					OFFSET -3.198488 0.000000 0.000000 
					CHANNELS 3 Zrotation Yrotation Xrotation
					JOINT rForeArm
					{
						OFFSET -10.139888 0.000000 0.000000 
						CHANNELS 3 Yrotation Zrotation Xrotation
						JOINT rHand
						{
							OFFSET -8.370511 0.000000 0.000000 
							CHANNELS 3 Zrotation Yrotation Xrotation
							End Site
							{
								OFFSET -4.083176 0.000000 0.000000 
							}
						}
					}
				}
			}
		}
	}
	JOINT lThigh
	{
		OFFSET 5.308129 -1.633274 1.361059 
		CHANNELS 3 Xrotation Zrotation Yrotation
		JOINT lShin
		{
			OFFSET -2.041588 -20.007561 0.000000 
			CHANNELS 3 Xrotation Zrotation Yrotation
			JOINT lFoot
			{
				OFFSET 0.000000 -19.190928 -1.224953 
				CHANNELS 3 Xrotation Yrotation Zrotation
				End Site
				{
					OFFSET 0.000000 -2.449906 4.627600 
				}
			}
		}
	}
	JOINT rThigh
	{
		OFFSET -5.308129 -1.633274 1.361059 
		CHANNELS 3 Xrotation Zrotation Yrotation
		JOINT rShin
		{
			OFFSET 2.041588 -20.007561 0.000000 
			CHANNELS 3 Xrotation Zrotation Yrotation
			JOINT rFoot
			{
				OFFSET 0.000000 -19.190928 -1.224953 
				CHANNELS 3 Xrotation Yrotation Zrotation
				End Site
				{
					OFFSET 0.000000 -2.449906 4.627600 
				}
			}
		}
	}
}
MOTION
Frames: 17
Frame Time: 0.050666
0.000000 42.361477 0.000000 -0.371147 -0.966777 9.645325 0.020256 0.020256 0.020256 2.114684 4.059743 -0.582326 6.380192 2.072488 -0.513448 12.756457 2.006441 -1.035731 -3.923244 -3.527897 2.557763 -60.543282 13.612430 10.900037 -48.938370 -4.184778 24.980228 -15.478985 3.718779 -3.546743 2.927161 14.347212 2.050894 52.058426 -20.513298 17.821568 48.463131 5.650276 21.404032 3.329823 -11.100501 -3.845052 -10.494309 14.163281 8.026770 42.531624 4.662194 32.235275 -3.391880 0.260213 -8.541796 -1.383572 -1.519357 -4.689052 17.798279 3.786816 -13.466288 -15.497389 -0.295282 2.075146 
-0.834717 42.456997 0.314632 -1.376966 -0.244070 7.369537 0.000000 0.000000 0.000000 2.965158 3.696230 -0.111179 7.061215 1.659518 0.410292 13.029535 1.801256 -0.622082 -3.205910 -3.866940 3.283189 -61.869751 11.644596 11.751424 -51.172684 -3.516989 27.904390 -12.628455 2.463204 -3.379324 3.237543 14.798704 2.808007 52.704918 -21.960855 20.526510 47.070713 6.563394 23.755487 2.170112 -12.330978 -3.805256 -15.745367 11.166181 6.227777 47.794376 4.251046 29.265507 -3.657393 0.111675 -2.924341 0.458294 -1.658041 -4.506997 16.666773 3.337619 -11.601574 -15.755025 -0.162752 1.189746 
-1.460571 42.406784 0.603857 -1.543044 0.566201 4.584749 0.000000 0.000000 0.000000 3.365416 3.431586 0.953850 7.547188 1.143729 2.004162 12.922447 1.957321 -0.203522 -2.017917 -3.897784 3.578958 -63.232239 10.311660 11.648219 -53.225533 -2.939410 26.743313 -12.603188 3.197498 -3.463075 4.249157 14.599559 3.104911 53.361984 -23.445320 21.271271 47.271904 6.492659 24.145185 3.753932 -12.905798 -3.954838 -18.671324 7.792704 5.440053 45.254150 1.984017 29.336929 -4.501588 0.129600 -3.146832 0.380268 -2.001855 -4.259792 17.474634 2.985464 -9.088731 -16.795727 -0.079168 0.509025 
-2.168740 42.322086 1.040407 -1.250116 0.781064 2.092725 0.000000 0.000000 0.000000 3.678702 3.488908 1.806386 7.698010 0.732649 3.701264 12.805071 1.908922 0.394362 -0.814950 -3.912005 3.816097 -62.535797 8.950802 13.549628 -54.424789 -3.297911 25.095663 -12.875746 3.429691 -3.493428 5.146490 14.114269 3.334923 53.093800 -23.549755 22.107052 47.421555 6.662895 23.349926 2.527897 -12.515759 -3.842416 -20.268641 5.154663 4.803876 37.564075 -1.070505 29.570427 -4.502523 0.067611 -1.657070 0.839411 -1.728396 -3.950834 17.492586 2.936466 -6.998893 -17.743881 0.038736 -0.244402 
-2.896389 42.193729 1.644352 -0.517595 0.458966 -0.062350 0.000000 0.000000 0.000000 3.915092 3.848447 2.401913 7.558229 0.639527 5.068914 12.893183 1.976873 0.929752 -0.233856 -3.459825 4.001860 -62.214287 8.569635 15.173436 -54.605293 -3.529874 27.831779 -11.306939 4.136623 -3.581938 5.790302 13.886012 3.484590 52.079609 -22.388275 22.204012 47.414173 6.497996 24.400105 2.994990 -12.117276 -3.854378 -21.635237 3.367990 3.847131 28.021152 -3.752205 29.178022 -2.934892 -0.069613 3.357010 1.694404 -0.740138 -3.196736 16.896988 2.780527 -5.801702 -18.562618 0.102267 -0.653460 
-3.766240 41.970745 2.559847 0.791107 0.869058 -1.735507 0.000000 0.000000 0.000000 3.131012 3.549395 2.743091 6.808402 0.618665 5.706450 13.087812 1.655077 1.428839 0.048808 -3.280659 3.264797 -62.102238 9.804257 15.847296 -53.912014 -3.901000 28.577063 -11.914387 2.788810 -3.423079 6.267619 13.692627 2.754618 51.190815 -21.017200 22.080677 47.602135 6.003903 24.845371 2.060025 -13.051514 -3.823374 -20.160753 1.874499 2.633258 13.913282 -6.222342 31.740019 -2.628948 -0.081823 3.633257 2.210980 -0.448078 -3.198301 16.682772 3.132336 -3.821124 -20.188168 0.249357 -1.340680 
-4.739862 41.783863 3.532386 2.177740 -0.126861 -4.193907 0.000000 0.000000 0.000000 2.917126 3.959722 3.522122 6.711450 0.719576 6.727919 12.042648 1.764397 1.502752 0.745134 -3.708972 2.997327 -61.472343 11.761522 14.994009 -52.515240 -4.104655 28.527567 -12.505842 2.977036 -3.439605 7.188047 13.720347 2.437983 50.154675 -19.097784 21.307064 48.459995 6.324070 20.981476 0.519301 -11.498649 -3.662278 -18.891485 2.401445 2.043339 5.702372 -6.033715 37.910866 1.458110 0.041330 3.278784 4.409850 1.161012 -2.326443 14.169285 3.385084 -3.680158 -20.469656 0.267679 -1.487298 
-6.053941 41.566029 5.037208 2.851635 -0.409648 -6.240786 0.000000 0.000000 0.000000 2.181222 3.239843 4.098298 6.001313 0.196269 7.366236 11.710559 1.823489 1.710554 1.303257 -4.671653 2.312592 -60.749439 14.720827 13.729248 -51.000599 -4.264836 27.290058 -13.813428 3.564415 -3.513272 7.815605 12.611019 1.833519 50.830585 -17.594910 21.360409 48.910755 6.312472 19.621538 -2.344008 -10.196267 -3.463253 -21.562965 3.008403 2.607556 12.983768 -5.354888 40.463280 -2.082090 -0.138457 7.231721 8.102193 1.766783 -1.797108 11.064251 3.415540 -1.386242 -20.743231 0.357960 -2.129396 
-7.389562 41.685200 6.675180 1.777381 0.370915 -6.198973 0.000000 0.000000 0.000000 1.963132 0.897910 3.810222 5.824734 -1.189030 6.691967 11.036364 1.805013 1.737102 1.064505 -7.600840 2.197484 -58.447723 17.553734 12.361468 -49.953163 -4.441582 25.895975 -15.508040 3.952157 -3.575244 7.136094 11.102791 1.978854 52.490257 -16.494837 20.781925 48.993481 6.006202 19.277790 -3.138159 -9.434076 -3.420949 -20.023087 2.469818 3.481914 15.413631 -5.775308 41.524109 -3.428123 -0.169227 5.898240 10.054022 0.263093 -3.335604 13.476005 3.504502 0.941415 -20.024328 0.451618 -2.473455 
-8.544586 41.882904 8.327911 2.431663 0.243921 -4.832956 0.000000 0.000000 0.000000 1.220736 0.419827 3.475814 4.953029 -1.780822 6.042183 10.078804 1.737705 1.373147 0.031562 -7.665518 1.482022 -58.751080 19.077942 11.098493 -49.588379 -4.219115 25.665792 -16.340027 4.866375 -3.723042 6.994702 9.552152 1.372972 55.612465 -17.156492 18.679283 49.944794 5.374002 19.142746 -2.299533 -9.234531 -3.466733 -19.502363 2.683444 3.812203 18.043974 -5.524860 40.639866 -5.821488 -0.188496 3.538163 8.488566 -0.507511 -5.658124 20.622015 5.160705 4.364212 -17.078659 0.664618 -4.256211 
-9.576775 42.158501 9.807158 2.109375 -0.019518 -3.926111 0.000000 0.000000 0.000000 1.230478 -0.224558 3.608420 4.937990 -2.275840 6.106227 9.072428 1.503856 1.409043 0.030418 -7.979041 1.507242 -58.340759 18.127012 11.632051 -49.860668 -4.311832 26.216125 -16.248096 4.987354 -3.740070 7.231270 8.383863 1.471826 56.248924 -15.765772 19.788542 49.597305 5.581183 19.333218 -2.282882 -9.644469 -3.472138 -16.425238 2.851462 4.384453 17.233156 -5.695115 39.710308 -5.547708 -0.111278 2.409327 4.060948 -3.007457 -10.256766 33.944283 6.892557 6.175209 -9.110713 0.401737 -4.946909 
-10.467819 42.396343 11.005270 1.923877 -0.409925 -1.683367 0.000000 0.000000 0.000000 1.455147 -0.556461 3.032646 4.932661 -2.371298 5.717130 7.968421 1.845590 1.551822 -0.705200 -8.389230 1.685872 -57.623234 15.615525 12.140528 -50.739716 -4.272273 25.641014 -15.492838 4.754249 -3.698237 6.687300 8.223599 1.695125 56.128895 -13.747283 19.841583 49.495872 5.318511 21.019972 -2.199792 -10.334029 -3.466981 -13.796416 3.046292 4.742613 16.733887 -5.761322 36.386234 -6.508111 -0.082908 1.574911 -0.674365 -5.586535 -13.466909 43.787167 7.328559 9.513232 2.612878 -0.114427 -3.830153 
-11.325779 42.641987 12.044985 1.504703 -1.864592 1.962846 0.000000 0.000000 0.000000 2.207031 0.019517 1.865990 5.466403 -1.759457 4.776093 6.708298 1.542125 1.853293 -1.637795 -8.120604 2.383575 -56.790047 11.690413 13.073110 -51.973667 -4.337104 25.696821 -13.524475 4.495852 -3.637714 5.941425 9.219550 2.285312 55.814976 -12.672761 18.277658 50.359608 4.999241 18.853577 -1.825012 -10.300911 -3.494029 -10.890895 3.853749 5.179554 16.012779 -5.388840 32.421982 -7.283825 -0.070941 1.113015 -3.319841 -7.535897 -15.983834 46.613708 7.576853 2.008592 4.696296 0.078457 1.692208 
-12.126152 42.866741 12.918135 1.731302 -3.250472 5.683048 0.000000 0.000000 0.000000 2.373378 0.956210 1.299553 5.786826 -0.848185 3.941857 5.604676 1.316555 1.669335 -2.354232 -7.003449 2.556033 -56.552872 6.875942 15.090330 -52.459560 -4.603786 27.114452 -13.545973 4.543787 -3.646829 5.639159 10.667242 2.308953 55.156422 -13.173753 17.304497 51.750797 4.360438 18.582674 -1.641904 -10.896231 -3.500826 -8.952080 5.066268 5.575323 15.514447 -4.845588 27.812250 -8.014142 -0.044132 0.644867 -2.821483 -7.559735 -15.927824 39.596111 8.016386 -6.764416 -3.619205 -0.201033 6.818451 
-12.935467 42.989437 13.772784 1.625039 -3.992540 7.943451 0.000000 0.000000 0.000000 2.471291 1.248838 1.743547 5.925273 -0.062317 4.002124 3.827080 1.197002 1.579698 -2.006582 -5.341984 2.676340 -57.261787 2.477799 17.342579 -53.172592 -4.633132 28.378756 -14.347750 3.805339 -3.553462 6.397886 12.300151 2.274537 53.722340 -14.111537 17.804924 53.383339 3.742869 18.942987 -1.884583 -11.772392 -3.482825 -7.337304 6.057914 6.036827 15.523656 -4.392750 24.561071 -8.837210 0.013169 -0.284325 -1.630663 -6.770274 -13.479550 25.974154 6.843950 -22.377308 -6.528628 -0.610902 10.453332 
-13.720501 42.974590 14.525186 1.624791 -3.865638 10.212681 0.000000 0.000000 0.000000 2.334432 1.122115 1.803736 5.623512 0.262485 3.826782 2.948023 1.175890 1.504680 -1.994182 -4.740639 2.569375 -57.137531 0.062091 18.975479 -54.742760 -4.438107 28.599201 -14.665710 3.068526 -3.447233 6.490930 12.621395 2.135730 53.778267 -14.505389 18.910549 55.494267 3.162319 20.385523 -2.729038 -11.257727 -3.425655 -6.636901 6.616505 6.295593 16.303656 -4.356577 21.625607 -10.020308 0.109558 -1.167901 -3.203091 -7.831461 -10.721280 17.407936 4.918095 -24.520456 -3.644469 -0.273673 8.299836 
-14.590702 42.910282 15.382767 1.487642 -3.797551 12.596723 0.000000 0.000000 0.000000 2.227224 1.395430 1.343550 5.068109 -0.022137 3.485129 3.065013 1.283046 1.428363 -2.366555 -5.337201 2.474076 -56.498821 -0.056514 18.904858 -56.122238 -4.121637 26.037712 -14.860612 2.855059 -3.412110 6.627367 12.677219 1.968640 54.316021 -14.958673 19.646393 57.912369 2.293123 21.588425 -3.671487 -10.006243 -3.383300 -5.936457 7.088228 6.521158 17.367537 -4.092890 19.812857 -11.354271 0.230615 -2.316493 -5.964414 -9.749994 -9.860619 14.547371 4.382086 -21.108307 -0.426536 -0.023739 5.105084 
